<svg width="20" height="45" viewBox="0 0 20 45" fill="none" xmlns="http://www.w3.org/2000/svg">
<path d="M19.1202 12.5255L13.6638 6.2362V4.32257H14.4675C14.9114 4.32257 15.2713 4.00004 15.2713 3.60216V0.720414C15.2713 0.322529 14.9114 0 14.4675 0H4.82251C4.37861 0 4.01877 0.322529 4.01877 0.720414V3.60216C4.01877 4.00004 4.37861 4.32257 4.82251 4.32257H5.62625V6.2362L0.169811 12.5255C0.0595467 12.6517 -0.00029322 12.8074 1.08039e-06 12.9677V40.3439C0.00284599 42.7301 2.16027 44.6639 4.82251 44.6665H14.4675C17.1298 44.6639 19.2872 42.7301 19.29 40.3439V12.9676C19.2902 12.8074 19.2305 12.6517 19.1202 12.5255ZM5.62625 1.44083H13.6637V2.88166H5.62625V1.44083ZM17.6825 40.3438C17.6805 41.9345 16.2423 43.2237 14.4674 43.2255H4.82241C3.04768 43.2238 1.60943 41.9346 1.60737 40.3438V19.1138C2.26249 19.1521 2.91063 19.2569 3.53936 19.4263C4.31494 19.6154 5.11671 19.8117 6.69809 19.8117C8.27946 19.8117 9.08016 19.6153 9.85583 19.4263C10.7427 19.1875 11.6658 19.0745 12.5916 19.0913C13.5174 19.0743 14.4405 19.1874 15.3273 19.4263C16.0933 19.6313 16.8838 19.7544 17.6823 19.7928V40.3438H17.6825ZM17.6825 18.3484C17.0274 18.3101 16.3792 18.2053 15.7505 18.0358C14.9749 17.8467 14.1731 17.6504 12.5918 17.6504C11.0104 17.6504 10.2086 17.8468 9.43303 18.0358C8.54649 18.2748 7.62376 18.3877 6.69828 18.3709C5.77241 18.3878 4.84939 18.2748 3.96256 18.0358C3.1965 17.8308 2.40601 17.7078 1.60757 17.6694V13.2153L7.064 6.92601C7.17427 6.79983 7.23411 6.64411 7.23381 6.48381V4.32257H12.0563V6.48381C12.056 6.64411 12.1159 6.79983 12.2261 6.92601L17.6826 13.2153V18.3484H17.6825Z" fill="black"/>
</svg>
