<svg width="92" height="92" viewBox="0 0 92 92" fill="none" xmlns="http://www.w3.org/2000/svg">
<path d="M59.1487 35.4991C52.6241 35.4991 47.3157 42.1343 47.3157 50.2905C47.3157 58.4467 52.6241 65.0818 59.1487 65.0818C65.6727 65.0818 70.9818 58.4467 70.9818 50.2905C70.9818 42.1343 65.6727 35.4991 59.1487 35.4991ZM50.2739 50.2905C50.2739 43.8431 54.1624 38.5917 58.9768 38.469C58.7652 39.3096 58.3752 39.9069 57.9181 40.5931C57.1474 41.7472 56.1905 43.183 56.1905 45.8487C56.1905 48.5152 57.1474 49.9517 57.9181 51.1088C58.6056 52.1394 59.1487 52.9541 59.1487 54.7264C59.1487 56.4966 58.6056 57.312 57.9181 58.3426C57.3749 59.1566 56.7466 60.1193 56.418 61.5436C52.8581 60.0052 50.2739 55.544 50.2739 50.2905V50.2905ZM59.3185 62.112C59.5301 61.2684 59.9208 60.6711 60.3794 59.985C61.15 58.8294 62.107 57.3929 62.107 54.7264C62.107 52.0592 61.15 50.6234 60.3794 49.4664C59.6911 48.4358 59.1487 47.6204 59.1487 45.8487C59.1487 44.0793 59.6911 43.2646 60.3794 42.234C60.9204 41.4215 61.5494 40.4587 61.8773 39.0359C65.4394 40.5757 68.0235 45.037 68.0235 50.2905C68.0235 56.7378 64.1329 61.9892 59.3185 62.112Z" fill="#C69155"/>
<path d="M91.6896 10.3539V7.39566C91.6896 4.94946 89.6984 2.95827 87.2522 2.95827H66.5443C66.5443 1.32674 65.2176 0 63.5861 0H54.7113C53.0798 0 51.753 1.32674 51.753 2.95827H31.0451C28.5982 2.95827 26.6077 4.94946 26.6077 7.39566V10.3539C26.6077 12.8001 28.5982 14.7913 31.0451 14.7913H31.2402L26.6077 21.7385V50.5953C24.5797 48.5586 22.0086 47.3322 19.2121 47.3322C12.6874 47.3322 7.37902 53.9674 7.37902 62.1236C7.37902 63.9949 7.66575 65.8034 8.20236 67.5194C7.06051 68.2351 5.97644 69.0917 4.98554 70.084C-0.741768 75.8113 -1.672 84.1979 2.91056 88.7805C4.82448 90.6958 7.42452 91.7077 10.3503 91.7077C10.8934 91.7077 11.4481 91.6737 12.0114 91.603C15.4724 91.1711 18.8806 89.4298 21.6048 86.704C22.0353 86.2736 22.426 85.8092 22.8102 85.3383C24.9509 89.1813 28.5036 91.7062 32.5243 91.7062C37.3654 91.7062 41.532 88.0481 43.3614 82.8314H81.3357C87.0435 82.8314 91.6896 78.1853 91.6896 72.4775V21.7385L87.0565 14.7913H87.2522C89.6984 14.7913 91.6896 12.8001 91.6896 10.3539V10.3539ZM87.2522 5.91653C88.0683 5.91653 88.7313 6.58099 88.7313 7.39566V10.3539C88.7313 11.1686 88.0683 11.8331 87.2522 11.8331H66.5443V5.91653H87.2522ZM29.566 10.3539V7.39566C29.566 6.58099 30.2283 5.91653 31.0451 5.91653H51.753V8.8748H54.7113V2.95827H63.5861V19.7935L60.6278 18.3144V8.8748H57.6695V18.3144L54.7113 19.7935V11.8331H31.0451C30.2283 11.8331 29.566 11.1686 29.566 10.3539ZM28.0869 62.1236C28.0869 62.5006 28.0602 62.8689 28.0334 63.2373C26.3189 64.1205 24.8116 65.4942 23.6119 67.2146C23.6256 66.9972 23.6495 66.7885 23.6495 66.5595C23.6495 63.8923 22.6925 62.4565 21.9219 61.2995C21.2336 60.2689 20.6912 59.4535 20.6912 57.6818C20.6912 55.9124 21.2336 55.0991 21.9219 54.0685C22.3682 53.3983 22.8724 52.6262 23.2219 51.5819C26.1044 53.5384 28.0869 57.5237 28.0869 62.1236ZM10.3373 62.1236C10.3373 55.5989 14.3175 50.2905 19.2121 50.2905C19.6469 50.2905 20.0715 50.3468 20.4912 50.4277C20.2723 51.2063 19.8968 51.774 19.4605 52.4276C18.6899 53.5817 17.733 55.0161 17.733 57.6818C17.733 60.3483 18.6899 61.7848 19.4605 62.9419C20.065 63.8497 20.5576 64.5922 20.6674 65.9666C18.869 65.1851 16.7948 64.9085 14.579 65.1851C13.3281 65.3418 12.0851 65.6734 10.8782 66.1572C10.5236 64.8688 10.3373 63.5197 10.3373 62.1236V62.1236ZM7.07713 72.1756C9.33988 69.9129 12.1356 68.472 14.9459 68.1217C17.5452 67.7931 19.8361 68.4576 21.4423 69.9721C20.7309 70.3758 20.0578 70.5116 19.2829 70.6669C17.9222 70.9392 16.23 71.2779 14.3442 73.1636C12.4585 75.0479 12.1198 76.743 11.8475 78.1044C11.6048 79.3185 11.4127 80.2798 10.1596 81.5314C8.90654 82.7823 7.94669 82.9766 6.73118 83.2207C5.79733 83.4071 4.69881 83.636 3.49341 84.3683C2.07927 80.7918 3.39518 75.8576 7.07713 72.1756V72.1756ZM19.5133 84.6125C17.2505 86.8752 14.4547 88.3161 11.6445 88.6664C9.04738 88.9935 6.75573 88.3305 5.14949 86.8189C5.85944 86.4166 6.53112 86.2765 7.31041 86.1198C8.67182 85.846 10.3655 85.5088 12.2512 83.623C14.137 81.7387 14.4757 80.0436 14.748 78.6822C14.9906 77.4681 15.1827 76.5068 16.4358 75.2552C17.6867 74.0021 18.6466 73.8115 19.8614 73.5688C20.2369 73.4937 20.6407 73.4092 21.0639 73.2936C20.8299 74.4535 20.6912 75.6633 20.6912 76.9149C20.6912 78.7638 20.9765 80.5268 21.4734 82.1583C20.9007 83.0358 20.2579 83.8686 19.5133 84.6125V84.6125ZM23.6495 76.9149C23.6495 70.4675 27.5394 65.2162 32.3524 65.0934C32.1408 65.9355 31.7508 66.5314 31.2936 67.2189C30.523 68.3731 29.566 69.8074 29.566 72.4732C29.566 75.1397 30.523 76.5762 31.2936 77.7332C31.9812 78.7638 32.5243 79.5785 32.5243 81.3509C32.5243 83.1211 31.9812 83.9365 31.2936 84.9671C30.7505 85.781 30.1221 86.7438 29.7935 88.168C26.2336 86.6297 23.6495 82.1684 23.6495 76.9149V76.9149ZM38.4408 64.1249V34.6325L43.4907 29.5827H74.8067L79.8565 34.6325V65.9485L74.8067 70.9984H43.3614C42.3466 68.1051 40.6104 65.7001 38.4408 64.1249ZM32.694 88.7364C32.9056 87.8928 33.2963 87.2956 33.755 86.6094C34.5256 85.4539 35.4825 84.0173 35.4825 81.3509C35.4825 78.6837 34.5256 77.2479 33.755 76.0908C33.0667 75.0602 32.5243 74.2448 32.5243 72.4732C32.5243 70.7037 33.0667 69.8905 33.755 68.8598C34.2974 68.0473 34.9264 67.0846 35.2543 65.6618C38.8149 67.2002 41.3991 71.6614 41.3991 76.9149C41.3991 83.3623 37.5084 88.6136 32.694 88.7364ZM88.7313 22.6355V72.4775C88.7313 76.5552 85.4134 79.8732 81.3357 79.8732H44.119C44.2743 78.9177 44.3573 77.9282 44.3573 76.9149C44.3573 75.9016 44.2743 74.9122 44.119 73.9566H76.0316L82.8148 67.1734V33.4076L76.0316 26.6244H42.2658L35.4825 33.4076V62.6104C34.5343 62.3041 33.5477 62.1236 32.5243 62.1236C32.0194 62.1236 31.5269 62.177 31.0386 62.2536C31.0386 62.2095 31.0451 62.1676 31.0451 62.1236C31.0451 59.5336 30.5064 57.099 29.566 54.9792V22.6355L34.7943 14.7913H51.753V24.5805L59.1487 20.8826L66.5443 24.5805V14.7913H83.5024L88.7313 22.6355Z" fill="#C69155"/>
</svg>
