<svg width="95" height="92" viewBox="0 0 95 92" fill="none" xmlns="http://www.w3.org/2000/svg">
<path d="M57.8204 77.3106H74.3254C74.4999 77.3079 74.6727 77.2759 74.8366 77.2159C74.8908 77.1935 74.9435 77.1677 74.9944 77.1386C75.0636 77.1131 75.1306 77.082 75.1948 77.0455L84.4878 70.8512L92.4997 68.1801C93.9501 67.6962 94.8449 66.2423 94.6234 64.7295L85.3524 1.349C85.3524 1.3064 85.3193 1.27327 85.3098 1.23067C85.2858 1.13686 85.253 1.04548 85.212 0.957717C85.1663 0.845669 85.107 0.739685 85.0353 0.642164C85.0175 0.605238 84.9975 0.569412 84.9754 0.534876C84.9438 0.498587 84.898 0.484387 84.8633 0.451254C84.7683 0.360585 84.6623 0.282141 84.5478 0.217745C84.4814 0.179556 84.4123 0.146332 84.3411 0.118345C84.2161 0.0728829 84.0855 0.0447476 83.953 0.0347236C83.8995 0.0199228 83.8453 0.00833175 83.7904 1.27187e-05H28.3793C26.792 -0.00446762 25.4505 1.17525 25.2521 2.75006L19.8877 44.736C19.7775 45.6009 20.3892 46.3913 21.2541 46.5015C22.1189 46.6118 22.9094 46 23.0196 45.1352L28.3793 3.15555H81.9997L72.9338 74.1551H57.8204C56.949 74.1551 56.2426 74.8615 56.2426 75.7328C56.2426 76.6042 56.949 77.3106 57.8204 77.3106V77.3106ZM83.8977 13.2028L91.5057 65.187L85.3682 67.2381V47.333C85.3682 46.4617 84.6618 45.7553 83.7904 45.7553C82.9191 45.7553 82.2127 46.4617 82.2127 47.333V68.5777L76.3276 72.5016L83.8977 13.2028Z" fill="#C69155"/>
<path d="M74.1504 15.7777C75.0218 15.7777 75.7282 15.0713 75.7282 14.2C75.7282 13.3286 75.0218 12.6222 74.1504 12.6222H70.9949C70.1235 12.6222 69.4171 13.3286 69.4171 14.2C69.4171 15.0713 70.1235 15.7777 70.9949 15.7777H74.1504Z" fill="#C69155"/>
<path d="M64.6837 15.7777C65.5551 15.7777 66.2615 15.0713 66.2615 14.2C66.2615 13.3286 65.5551 12.6222 64.6837 12.6222H61.5282C60.6568 12.6222 59.9504 13.3286 59.9504 14.2C59.9504 15.0713 60.6568 15.7777 61.5282 15.7777H64.6837Z" fill="#C69155"/>
<path d="M55.2172 15.7777C56.0886 15.7777 56.795 15.0713 56.795 14.2C56.795 13.3286 56.0886 12.6222 55.2172 12.6222H52.0617C51.1903 12.6222 50.4839 13.3286 50.4839 14.2C50.4839 15.0713 51.1903 15.7777 52.0617 15.7777H55.2172Z" fill="#C69155"/>
<path d="M45.607 15.7777C46.4783 15.7777 47.1847 15.0713 47.1847 14.2C47.1847 13.3286 46.4783 12.6222 45.607 12.6222H42.4514C41.58 12.6222 40.8737 13.3286 40.8737 14.2C40.8737 15.0713 41.58 15.7777 42.4514 15.7777H45.607Z" fill="#C69155"/>
<path d="M36.1404 15.7777C37.0118 15.7777 37.7182 15.0713 37.7182 14.2C37.7182 13.3286 37.0118 12.6222 36.1404 12.6222H32.9849C32.1135 12.6222 31.4071 13.3286 31.4071 14.2C31.4071 15.0713 32.1135 15.7777 32.9849 15.7777H36.1404Z" fill="#C69155"/>
<path d="M66.6103 49.3541L69.3241 30.4067C69.4481 29.5035 69.1754 28.5909 68.5763 27.9038C67.9771 27.2167 67.1101 26.8222 66.1985 26.822H37.4185C35.8494 26.8282 34.521 27.9815 34.2945 29.5342L31.5791 48.4816C31.4551 49.385 31.728 50.298 32.3275 50.9851C32.9269 51.6723 33.7944 52.0666 34.7063 52.0663H63.4848C65.0537 52.0588 66.3819 50.9063 66.6103 49.3541ZM34.7063 48.9108L37.42 29.9776H66.1985L63.4848 48.9108H34.7063Z" fill="#C69155"/>
<path d="M50.2063 62.1499C44.6636 56.645 34.3403 57.9798 27.1977 65.1224C23.2905 68.8072 20.9877 73.8797 20.7857 79.2466C20.6307 82.5377 21.8713 85.7414 24.2022 88.07C26.5331 90.3985 29.7382 91.6358 33.0291 91.4774C38.4119 91.2898 43.5079 89.005 47.229 85.1111C51.1335 81.4298 53.4356 76.362 53.6395 70.9996C53.7426 67.7062 52.5035 64.5121 50.2063 62.1499V62.1499ZM29.4255 67.3565C32.5483 64.0496 36.8335 62.0849 41.3771 61.8769C43.8246 61.7962 46.2023 62.6998 47.9785 64.3856C48.0621 64.4692 48.1205 64.5733 48.2009 64.6617C47.1901 65.2423 46.0602 65.585 44.8971 65.6636C39.9652 66.0475 36.0446 69.9607 35.6514 74.8919C35.4586 78.435 32.6251 81.2625 29.0816 81.4476C27.4855 81.5806 25.9404 82.0742 24.5628 82.8912C24.1373 81.7254 23.9267 80.4922 23.9412 79.2513C24.1662 74.7273 26.1312 70.4654 29.4255 67.3565ZM45.0012 82.8739C39.0846 88.7936 30.7587 90.1316 26.4498 85.8479C26.3646 85.7627 26.3063 85.6586 26.2258 85.5703C27.2365 84.9894 28.3665 84.6472 29.5296 84.57C34.4627 84.1852 38.3838 80.2708 38.7769 75.3384C38.9734 71.7996 41.8042 68.977 45.3436 68.7907C46.939 68.6569 48.4834 68.1633 49.8608 67.347C50.2857 68.5125 50.4968 69.745 50.484 70.9854C50.2583 75.5071 48.2939 79.7666 45.0012 82.8739V82.8739Z" fill="#C69155"/>
<path d="M26.9641 59.324C27.3923 60.0676 28.3362 60.3326 29.0889 59.9207C29.8416 59.5087 30.127 58.5708 29.7315 57.8094C26.6817 52.2556 21.6975 48.9281 16.3931 48.9108C15.4429 48.9122 14.4959 49.018 13.5689 49.2263C5.68003 50.9887 -0.0220248 59.8147 6.39537e-05 70.2106C-0.0220248 81.9382 7.33195 91.4931 16.3931 91.5105C17.3493 91.5162 18.3028 91.407 19.233 91.1855C19.3508 91.1563 19.465 91.1145 19.5738 91.0608C20.1207 90.7878 20.4606 90.2235 20.4464 89.6124C20.3984 86.9516 19.4096 84.3938 17.6553 82.3926C16.2451 80.8701 15.475 78.8633 15.5048 76.7883C15.4808 74.7073 16.2477 72.6947 17.6505 71.1573C21.3636 66.8371 21.3636 60.4524 17.6505 56.1322C16.6386 54.9846 15.9393 53.5958 15.62 52.0994C15.8819 52.0773 16.138 52.0663 16.3883 52.0663C20.5836 52.0805 24.4381 54.728 26.9641 59.324ZM17.2829 63.6313C17.3061 65.7142 16.5362 67.7279 15.1293 69.264C11.4159 73.5846 11.4159 79.97 15.1293 84.2906C16.1434 85.4386 16.843 86.8295 17.1599 88.3281C16.9137 88.3486 16.6613 88.3581 16.4025 88.3581C9.07854 88.3407 3.13667 80.2026 3.15087 70.2106C3.13824 62.2319 7.07793 55.1508 12.5559 52.8552C12.9802 54.7653 13.8683 56.5416 15.1419 58.0271C16.5481 59.5514 17.3146 61.5578 17.2829 63.6313V63.6313Z" fill="#C69155"/>
<path d="M42.595 37.8665H58.3727C59.244 37.8665 59.9504 37.1601 59.9504 36.2887C59.9504 35.4173 59.244 34.7109 58.3727 34.7109H42.595C41.7236 34.7109 41.0172 35.4173 41.0172 36.2887C41.0172 37.1601 41.7236 37.8665 42.595 37.8665Z" fill="#C69155"/>
<path d="M55.2172 41.022H44.1729C43.3015 41.022 42.5951 41.7284 42.5951 42.5997C42.5951 43.4711 43.3015 44.1775 44.1729 44.1775H55.2172C56.0886 44.1775 56.795 43.4711 56.795 42.5997C56.795 41.7284 56.0886 41.022 55.2172 41.022Z" fill="#C69155"/>
</svg>
