<svg width="24" height="38" viewBox="0 0 24 38" fill="none" xmlns="http://www.w3.org/2000/svg">
<path d="M20.7273 8.98075H13.0836V3.25441L19.7965 2.21424C20.3921 2.12198 20.8017 1.55428 20.7113 0.946434C20.6208 0.338584 20.0644 -0.0800091 19.4689 0.0129126L11.8289 1.1967C11.2958 1.2793 10.9017 1.74703 10.9017 2.29736V8.98067H3.27273C1.46815 8.98067 0 10.4788 0 12.3205V14.5471C0 15.1619 0.488436 15.6603 1.09091 15.6603H2.27782L4.36167 36.9971C4.41731 37.5664 4.88669 38 5.44727 38H18.5455C19.1062 38 19.5756 37.5662 19.6311 36.9968L21.7079 15.6604H22.9091C23.5116 15.6604 24 15.162 24 14.5471V12.3206C24 10.4789 22.5319 8.98075 20.7273 8.98075ZM18.3233 27.9063H5.66647L5.2312 23.4496H18.7571L18.3233 27.9063ZM6.43484 35.7734L5.88393 30.1329H18.1065L17.5575 35.7734H6.43484ZM18.9739 21.223H5.01374L4.47047 15.6603H19.5153L18.9739 21.223ZM21.8182 13.4339C20.9034 13.4339 3.51331 13.4339 2.18182 13.4339V12.3206C2.18182 11.7067 2.6712 11.2073 3.27273 11.2073H20.7273C21.3288 11.2073 21.8182 11.7066 21.8182 12.3206V13.4339Z" fill="#10111F"/>
</svg>
