<svg width="40" height="34" viewBox="0 0 40 34" fill="none" xmlns="http://www.w3.org/2000/svg">
<path d="M40 24.6797C40 23.3873 38.9486 22.3359 37.6562 22.3359H36.875V19.818C36.9072 19.79 36.94 19.7632 36.9716 19.7344C37.4787 19.2721 38.538 18.9766 39.2286 18.9678C39.66 18.9624 40.0054 18.6082 39.9999 18.1768C39.9945 17.7488 39.6459 17.4054 39.2189 17.4054C39.2156 17.4054 39.2122 17.4054 39.2089 17.4055C38.5385 17.4139 37.6478 17.5919 36.875 17.9573V15.9094C37.8262 15.5201 38.4587 14.5407 38.3229 13.4535C37.4013 6.04656 31.0692 0.460938 23.5938 0.460938H16.4062C8.93078 0.460938 2.59867 6.04656 1.67711 13.4532C1.54172 14.5372 2.16984 15.5186 3.125 15.9095V17.9228C2.3493 17.5714 1.45648 17.3956 0.771016 17.4055C0.339609 17.4111 -0.00554687 17.7655 7.8125e-05 18.197C0.00570312 18.6249 0.354375 18.9679 0.781094 18.9679C0.784531 18.9679 0.788047 18.9679 0.791562 18.9678C1.49016 18.9571 2.57453 19.249 3.10344 19.7314C3.11047 19.7379 3.11797 19.744 3.12508 19.7504V22.3359H2.34375C1.04891 22.3359 0 23.3847 0 24.6797C0 25.841 0.849219 26.8073 1.95922 26.9913C1.77664 27.4733 1.76352 27.9998 1.93281 28.5002C2.90109 31.3552 5.57789 33.2734 8.59375 33.2734H31.4062C34.4221 33.2734 37.0989 31.3552 38.0674 28.4997C38.2366 27.9998 38.2234 27.4735 38.0409 26.9916C39.13 26.8126 40 25.8648 40 24.6797ZM3.22758 13.6464C4.05211 7.02023 9.71766 2.02344 16.4062 2.02344H23.5938C30.2823 2.02344 35.9479 7.02024 36.7724 13.6468C36.8288 14.0983 36.4766 14.4914 36.0415 14.5205C36.0363 14.5209 36.0312 14.5213 36.026 14.5218C36.0127 14.523 35.9993 14.5234 35.9859 14.5234H4.01406C3.55391 14.5234 3.16875 14.1183 3.22758 13.6464ZM32.2842 18.5797C30.5674 17.0141 28.2606 17.0141 26.5438 18.5797C25.4228 19.6019 24.0302 19.6019 22.9092 18.5797C21.1924 17.0141 18.8856 17.0141 17.1688 18.5797C16.0478 19.6019 14.6552 19.6019 13.5342 18.5797C11.8174 17.0142 9.51062 17.0141 7.79367 18.5798C6.84359 19.4469 5.70539 19.5845 4.6875 18.9746V16.0859H35.3125V19.0199C34.3157 19.5745 33.2068 19.421 32.2842 18.5797ZM35.3125 20.7143V22.3359H4.6875V20.6909C5.10992 20.837 5.54344 20.9102 5.97656 20.9101C6.98477 20.9101 7.99031 20.5157 8.8468 19.7342C9.96773 18.712 11.3605 18.712 12.4814 19.7342C14.1982 21.2999 16.5051 21.2998 18.2218 19.7342C19.3428 18.712 20.7355 18.712 21.8564 19.7342C23.5732 21.2999 25.8801 21.2998 27.5968 19.7342C28.7177 18.712 30.1105 18.7121 31.2314 19.7342C32.4265 20.8242 33.927 21.1592 35.3125 20.7143ZM36.5875 27.9984C35.8344 30.2189 33.7522 31.7109 31.4062 31.7109H8.59375C6.24781 31.7109 4.16563 30.2189 3.41273 27.9988C3.25062 27.5199 3.66414 27.0234 4.17656 27.0234H35.8234C36.3377 27.0234 36.7486 27.5223 36.5875 27.9984ZM37.6562 25.4609H2.34375C1.91297 25.4609 1.5625 25.1105 1.5625 24.6797C1.5625 24.2484 1.91242 23.8984 2.34375 23.8984H37.6562C38.087 23.8984 38.4375 24.2489 38.4375 24.6797C38.4375 25.111 38.0876 25.4609 37.6562 25.4609Z" fill="black"/>
</svg>
