<svg width="30" height="30" viewBox="0 0 30 30" fill="none" xmlns="http://www.w3.org/2000/svg">
<path d="M15 0C6.71566 0 0 6.71566 0 15C0 23.2843 6.71566 30 15 30C23.2843 30 30 23.2843 30 15C30 6.71566 23.2843 0 15 0Z" fill="#40B3E0"/>
<path d="M22.2983 8.62878L19.6191 22.1369C19.6191 22.1369 19.2444 23.0737 18.214 22.624L12.0314 17.884L9.78329 16.7974L5.99884 15.5234C5.99884 15.5234 5.41806 15.3174 5.36181 14.8677C5.30556 14.4181 6.01759 14.1746 6.01759 14.1746L21.0617 8.273C21.0617 8.273 22.2982 7.72971 22.2982 8.62901" fill="white"/>
<path d="M11.5562 21.9844C11.5562 21.9844 11.3758 21.9675 11.1508 21.2555C10.9261 20.5436 9.7832 16.7966 9.7832 16.7966L18.8697 11.0263C18.8697 11.0263 19.3943 10.7078 19.3756 11.0263C19.3756 11.0263 19.4692 11.0826 19.1881 11.3448C18.9072 11.6072 12.0502 17.7709 12.0502 17.7709" fill="#D2E5F1"/>
<path d="M14.4023 19.7014L11.957 21.931C11.957 21.931 11.7657 22.0761 11.5566 21.9852L12.0249 17.8438" fill="#B5CFE4"/>
</svg>
