<svg width="119" height="118" viewBox="0 0 119 118" fill="none" xmlns="http://www.w3.org/2000/svg">
<g opacity="0.34">
<mask id="mask0" mask-type="alpha" maskUnits="userSpaceOnUse" x="0" y="0" width="119" height="118">
<rect width="119" height="117.312" fill="white"/>
</mask>
<g mask="url(#mask0)">
<rect x="-47.8478" y="64.2019" width="162.043" height="1.68794" transform="rotate(-45 -47.8478 64.2019)" fill="white"/>
<rect x="-37.7029" y="74.3472" width="162.043" height="1.68794" transform="rotate(-45 -37.7029 74.3472)" fill="white"/>
<rect x="-27.5573" y="84.4922" width="162.043" height="1.68794" transform="rotate(-45 -27.5573 84.4922)" fill="white"/>
<rect x="-17.4117" y="94.6376" width="162.043" height="1.68794" transform="rotate(-45 -17.4117 94.6376)" fill="white"/>
<rect x="-7.26672" y="104.783" width="162.043" height="1.68794" transform="rotate(-45 -7.26672 104.783)" fill="white"/>
<rect x="2.8783" y="114.928" width="162.043" height="1.68794" transform="rotate(-45 2.8783 114.928)" fill="white"/>
<rect x="13.0238" y="125.073" width="162.043" height="1.68794" transform="rotate(-45 13.0238 125.073)" fill="white"/>
<rect x="23.1688" y="135.219" width="162.043" height="1.68794" transform="rotate(-45 23.1688 135.219)" fill="white"/>
<rect x="33.3143" y="145.364" width="162.043" height="1.68794" transform="rotate(-45 33.3143 145.364)" fill="white"/>
<rect x="43.4594" y="155.509" width="162.043" height="1.68794" transform="rotate(-45 43.4594 155.509)" fill="white"/>
<rect x="53.6044" y="165.654" width="162.043" height="1.68794" transform="rotate(-45 53.6044 165.654)" fill="white"/>
<rect x="63.7499" y="175.799" width="162.043" height="1.68794" transform="rotate(-45 63.7499 175.799)" fill="white"/>
</g>
</g>
</svg>
